<svg width="44" height="73" viewBox="0 0 44 73" fill="none" xmlns="http://www.w3.org/2000/svg">
<line x1="22.5" y1="73" x2="22.5" y2="53" stroke="#A27449" stroke-width="5"/>
<path d="M22 26L41.0526 54.5H2.94744L22 26Z" fill="#008425"/>
<path d="M3.65692 53.1649C3.75172 53.0599 3.88656 53 4.02802 53H40.0006C40.175 53 40.3368 53.0909 40.4276 53.2398L41.0368 54.2398C41.2399 54.573 41 55 40.6099 55L3.12512 55C2.69185 55 2.46365 54.4865 2.754 54.1649L3.65692 53.1649Z" fill="white"/>
<path d="M10.2969 43.5H33.6992L35.3672 46H8.63213L10.2969 43.5Z" fill="#005F1A"/>
<path d="M22 15L41.0526 43.5H2.94744L22 15Z" fill="#008425"/>
<path d="M4.35157 41.2226C4.4443 41.0836 4.60042 41 4.76759 41H39.2324C39.3996 41 39.5557 41.0836 39.6484 41.2227L40.9818 43.2227C41.2033 43.5549 40.9651 44 40.5657 44H3.43426C3.03491 44 2.79671 43.5549 3.01823 43.2227L4.35157 41.2226Z" fill="white"/>
<path d="M11.3173 31H32.7039L34.2086 33.25H9.78267L11.3173 31Z" fill="#005F1A"/>
<path d="M22 1L41.0526 30.25H2.94744L22 1Z" fill="#008425"/>
<path d="M5.35071 26.2133C5.44428 26.0796 5.59717 26 5.76033 26H38.2397C38.4028 26 38.5557 26.0796 38.6493 26.2133L41.4493 30.2133C41.6813 30.5446 41.4442 31 41.0397 31L2.96033 31C2.55582 31 2.31874 30.5447 2.55071 30.2133L5.35071 26.2133Z" fill="white"/>
<path d="M21.587 0.605309C21.7855 0.31439 22.2145 0.31439 22.413 0.605309L32.7249 15.7182C32.9513 16.0501 32.7137 16.5 32.3119 16.5H11.6881C11.2863 16.5 11.0487 16.0501 11.2751 15.7182L21.587 0.605309Z" fill="white"/>
</svg>
