<svg width="55" height="70" viewBox="0 0 55 70" fill="none" xmlns="http://www.w3.org/2000/svg">
<path d="M24.5 67.5L24.5 2.5" stroke="#A27449" stroke-width="5" stroke-miterlimit="3.8637" stroke-linecap="square"/>
<path d="M25.5 40L31.5 35.5L33.5 29.5L35 27L33.5 24.5M33.5 24.5L41 22.5L44 20L42 16L41 11.5L44 8L43 1.5M33.5 24.5L35.5 27.5M33.5 24.5V18.5L31.5 13L34 3M28.8333 37.5H39.5L46.5 28.5L50.5 23L51 16L53 9" stroke="#A27449" stroke-width="4"/>
<path d="M24.5 53L17 48M17 48L15 37L19 31.5L13 25L17 19.5L13 9M17 48L7.5 40.5L4 38.5L2.5 29L6 20.5" stroke="#A27449" stroke-width="4"/>
<path d="M24 59L29.5 55.5L33.5 51V44" stroke="#A27449" stroke-width="4"/>
</svg>
